<svg width="200" height="152.34" viewBox="0 0 200 152.34089218126059" xmlns="http://www.w3.org/2000/svg">
    <g transform="matrix(2.1875,0,0,2.1875,45,0)" fill="#016080">
        <circle cx="25" cy="25" r="25"/>
    </g>
    <g transform="matrix(.77778 0 0 .77778 61.111 11.993)" fill="#fff" >
        <path d="m49.969 32.153c14.546 0 27.803 5.427 37.969 14.326l7.062-7.899c-12.041-10.591-27.766-17.999-45.031-17.999-17.241 0-32.942 7.387-44.969 17.952l7.046 7.907c10.159-8.889 23.392-14.287 37.923-14.287" xmlns="http://www.w3.org/2000/svg"/>
        <path d="m49.984 54.946c8.716 0 16.685 3.204 22.83 8.492l7.463-8.36c-8.123-7.075-18.697-11.697-30.293-11.697-11.58 0-22.139 4.611-30.262 11.66l7.454 8.368c6.148-5.265 14.102-8.463 22.808-8.463" xmlns="http://www.w3.org/2000/svg"/>
        <path d="M65.351,71.799c-4.158-3.501-9.514-5.921-15.359-5.921c-5.843,0-11.191,2.413-15.342,5.899L49.992,89L65.351,71.799z" xmlns="http://www.w3.org/2000/svg"/>
    </g>
    <g transform="matrix(.75586 0 0 .75586 -2.5699 121.77)">
        <path d="m19.76 28.4l6.16 11.6h-6.56l-5.56-10.48h-4.36v10.48h-6.04v-29.16h11.52c2.84 0 5.36 0.76 7.28 2.28 1.84 1.52 3 3.96 3 6.96 0 4.16-2.08 6.96-5.44 8.32zm-5.36-11.84h-5v7.4h5.04c1.28 0 2.36-0.32 3.28-0.96 0.92-0.6 1.36-1.56 1.36-2.8 0-2.8-2.36-3.64-4.68-3.64zm14.24 13.56c0-1.96 0.52-3.72 1.48-5.32s2.28-2.88 3.96-3.8c1.68-0.88 3.48-1.36 5.48-1.36 1.96 0 3.8 0.44 5.44 1.36 1.64 0.88 2.96 2.12 3.92 3.72 0.96 1.56 1.44 3.32 1.44 5.28s-0.48 3.72-1.44 5.32c-1 1.64-2.32 2.88-3.96 3.76-1.68 0.92-3.52 1.36-5.48 1.36-2 0-3.8-0.44-5.48-1.32-1.64-0.92-2.92-2.12-3.88-3.72s-1.48-3.36-1.48-5.28zm7.36-3.72c-0.92 0.96-1.4 2.16-1.4 3.64s0.48 2.68 1.4 3.64c0.96 0.96 2.12 1.44 3.52 1.44 1.36 0 2.52-0.48 3.48-1.44 0.96-0.92 1.4-2.16 1.4-3.64s-0.44-2.68-1.4-3.64-2.12-1.44-3.52-1.44c-1.36 0-2.52 0.48-3.48 1.44zm17.24 3.72c0-1.96 0.52-3.72 1.48-5.32s2.28-2.88 3.96-3.8c1.68-0.88 3.48-1.36 5.48-1.36 1.96 0 3.8 0.44 5.44 1.36 1.64 0.88 2.96 2.12 3.92 3.72 0.96 1.56 1.44 3.32 1.44 5.28s-0.48 3.72-1.44 5.32c-1 1.64-2.32 2.88-3.96 3.76-1.68 0.92-3.52 1.36-5.48 1.36-2 0-3.8-0.44-5.48-1.32-1.64-0.92-2.92-2.12-3.88-3.72s-1.48-3.36-1.48-5.28zm7.36-3.72c-0.92 0.96-1.4 2.16-1.4 3.64s0.48 2.68 1.4 3.64c0.96 0.96 2.12 1.44 3.52 1.44 1.36 0 2.52-0.48 3.48-1.44 0.96-0.92 1.4-2.16 1.4-3.64s-0.44-2.68-1.4-3.64-2.12-1.44-3.52-1.44c-1.36 0-2.52 0.48-3.48 1.44zm40.4-1.28c-2.28 0-3.56 1.48-3.56 3.76v11.12h-5.76v-11.04c0-2.32-1-3.84-3.24-3.84-2.32 0-3.56 1.48-3.56 3.84v11.04h-5.8v-19.88h5.72v2.6h0.04c0.56-0.96 1.36-1.72 2.44-2.24s2.2-0.8 3.36-0.8c2.52 0 4.72 1.08 5.8 3.16 1.96-2.2 3.84-3.16 6.64-3.16 4.88 0 6.96 3.36 6.96 7.92v12.4h-5.8v-11.12c0-2.32-0.96-3.76-3.24-3.76zm41.48 14.88v-19.88h-0.08l-8.24 19.88h-4.04l-8.2-19.76h-0.04v19.76h-5.92v-29.16h8.16l8.04 19.4 7.88-19.4h8.36v29.16h-5.92zm10.76-9.88c0-1.96 0.52-3.72 1.48-5.32s2.28-2.88 3.96-3.8c1.68-0.88 3.48-1.36 5.48-1.36 1.96 0 3.8 0.44 5.44 1.36 1.64 0.88 2.96 2.12 3.92 3.72 0.96 1.56 1.44 3.32 1.44 5.28s-0.48 3.72-1.44 5.32c-1 1.64-2.32 2.88-3.96 3.76-1.68 0.92-3.52 1.36-5.48 1.36-2 0-3.8-0.44-5.48-1.32-1.64-0.92-2.92-2.12-3.88-3.72s-1.48-3.36-1.48-5.28zm7.36-3.72c-0.92 0.96-1.4 2.16-1.4 3.64s0.48 2.68 1.4 3.64c0.96 0.96 2.12 1.44 3.52 1.44 1.36 0 2.52-0.48 3.48-1.44 0.96-0.92 1.4-2.16 1.4-3.64s-0.44-2.68-1.4-3.64-2.12-1.44-3.52-1.44c-1.36 0-2.52 0.48-3.48 1.44zm37.12 13.6h-5.8v-11.04c0-2.32-1.16-3.84-3.48-3.84-1.16 0-2.04 0.36-2.64 1.08-0.6 0.76-0.92 1.68-0.92 2.76v11.04h-5.8v-19.88h5.76v2.6h0.04c0.72-1.24 1.96-2.16 3.12-2.52 1.2-0.36 1.96-0.48 2.52-0.48 5.04 0 7.2 3.84 7.2 7.92v12.36zm5.52-24.28c-0.72-0.72-1.04-1.52-1.04-2.52s0.32-1.88 1.04-2.6c0.72-0.68 1.56-1.04 2.52-1.04 1 0 1.88 0.36 2.6 1.04 0.68 0.72 1.04 1.6 1.04 2.6s-0.36 1.8-1.04 2.52c-0.72 0.72-1.6 1.08-2.6 1.08-0.96 0-1.8-0.36-2.52-1.08zm-0.36 4.4h5.84v19.88h-5.84v-19.88zm23.88 5.04h-4.92v7.52c0 1.6 0.92 2.56 2.84 2.56 0.44 0 1.12-0.04 2.04-0.16v4.72c-0.96 0.32-2.12 0.48-3.48 0.48-4.8 0-7.2-2.44-7.2-7.28v-7.84h-3.84v-5.04h3.96v-6.24h5.68v6.24h4.92v5.04zm3.12 4.96c0-1.96 0.52-3.72 1.48-5.32s2.28-2.88 3.96-3.8c1.68-0.88 3.48-1.36 5.48-1.36 1.96 0 3.8 0.44 5.44 1.36 1.64 0.88 2.96 2.12 3.92 3.72 0.96 1.56 1.44 3.32 1.44 5.28s-0.48 3.72-1.44 5.32c-1 1.64-2.32 2.88-3.96 3.76-1.68 0.92-3.52 1.36-5.48 1.36-2 0-3.8-0.44-5.48-1.32-1.64-0.92-2.92-2.12-3.88-3.72s-1.48-3.36-1.48-5.28zm7.36-3.72c-0.92 0.96-1.4 2.16-1.4 3.64s0.48 2.68 1.4 3.64c0.96 0.96 2.12 1.44 3.52 1.44 1.36 0 2.52-0.48 3.48-1.44 0.96-0.92 1.4-2.16 1.4-3.64s-0.44-2.68-1.4-3.64-2.12-1.44-3.52-1.44c-1.36 0-2.52 0.48-3.48 1.44zm30.76-6.28v5.68c-0.52-0.08-1.12-0.16-1.84-0.16-2.88 0-4.72 2.04-4.72 5.64v8.72h-5.72v-19.88h5.52v2.88h0.04c1.04-2.16 2.96-3.08 5.16-3.08 0.52 0 1.04 0.08 1.56 0.2z"/>
    </g>
</svg>
