<svg width="200" height="200" viewBox="50 -20 200 200" xmlns="http://www.w3.org/2000/svg">
    <g transform="scale(1.5 1.5)">
        <g transform="matrix(2.1875,0,0,2.1875,45,0)" fill="#016080">
            <circle cx="25" cy="25" r="25"/>
        </g>
        <g transform="matrix(.77778 0 0 .77778 61.111 11.993)" fill="#fff">
            <path d="m49.969 32.153c14.546 0 27.803 5.427 37.969 14.326l7.062-7.899c-12.041-10.591-27.766-17.999-45.031-17.999-17.241 0-32.942 7.387-44.969 17.952l7.046 7.907c10.159-8.889 23.392-14.287 37.923-14.287"
                  xmlns="http://www.w3.org/2000/svg"/>
            <path d="m49.984 54.946c8.716 0 16.685 3.204 22.83 8.492l7.463-8.36c-8.123-7.075-18.697-11.697-30.293-11.697-11.58 0-22.139 4.611-30.262 11.66l7.454 8.368c6.148-5.265 14.102-8.463 22.808-8.463"
                  xmlns="http://www.w3.org/2000/svg"/>
            <path d="M65.351,71.799c-4.158-3.501-9.514-5.921-15.359-5.921c-5.843,0-11.191,2.413-15.342,5.899L49.992,89L65.351,71.799z"
                  xmlns="http://www.w3.org/2000/svg"/>
        </g>
    </g>
</svg>
